<?xml version="1.0" encoding="UTF-8" standalone="no"?>
<!-- Created with Inkscape (http://www.inkscape.org/) -->

<svg
   version="1.1"
   id="svg395"
   width="512"
   height="512"
   viewBox="0 0 512 512"
   xmlns:xlink="http://www.w3.org/1999/xlink"
   xmlns="http://www.w3.org/2000/svg"
   xmlns:svg="http://www.w3.org/2000/svg">
  <defs
     id="defs399" />
  <g
     id="g401">
    <path
       fill="#eeebe9"
       fillOpacity="1"
       d="m 62.23015,478.45609 c -14.494754,-3.92018 -25.020123,-14.58817 -28.727922,-29.11717 -1.32094,-5.1761 -1.526737,-12.18471 -1.287267,-43.83919 L 32.5,367.82162 34.860784,365.91081 C 37.04626,364.14189 39.106933,364 62.610784,364 H 88 V 333 302 H 68.057189 48.114378 l -0.307189,20.59019 c -0.302256,20.25952 -0.345102,20.62086 -2.667973,22.5 -3.015783,2.43969 -7.264292,2.43889 -10.278432,-0.002 L 32.5,343.17653 V 203.33826 63.5 l 2.356896,-5.843671 C 37.944434,50.001108 44.168213,42.584111 51,38.418281 62.226478,31.572693 48.578291,32 256,32 c 207.06739,0 193.616,-0.413092 204.89596,6.292343 6.40359,3.806651 13.2643,12.0739 16.3547,19.707657 2.08913,5.160467 2.22729,7.002403 2.23796,29.836999 L 479.5,112.174 l -2.36078,1.913 c -3.01354,2.44194 -7.26205,2.44332 -10.27844,0.003 -2.33383,-1.88787 -2.36649,-2.18178 -2.86078,-25.749998 -0.275,-13.112182 -0.89521,-24.453239 -1.37825,-25.202348 -0.65505,-1.015878 -5.67425,3.429002 -19.75,17.49013 L 424,99.48026 V 116.24013 133 h 25.54545 25.54546 l 2.45454,2.45455 2.45455,2.45454 v 152.09805 c 0,170.02985 0.38891,160.43948 -6.96776,171.82168 -4.4609,6.90188 -10.92475,12.16952 -18.8797,15.3858 L 448.5,479.5 258,479.69067 C 95.809264,479.85301 66.716874,479.66955 62.23015,478.45609 Z M 133,444 V 424 H 116.25962 99.519241 l -18.74312,18.72365 C 62.78859,460.69249 62.123039,461.49732 64.2665,462.68821 c 1.648869,0.9161 10.936867,1.25019 35.4835,1.27635 L 133,464 Z m 77,0 v -20 h -31 -31 v 20 20 h 31 31 z m 77,0 v -20 h -31 -31 v 20 20 h 31 31 z m 77,0 v -20 h -31 -31 v 20 20 h 31 31 z m 82.9564,18.86535 3.25485,-1.13464 L 431.36549,442.86535 412.51974,424 H 395.75987 379 v 20 20 h 32.35078 c 21.54744,0 33.43771,-0.37891 35.60562,-1.13465 z M 88,395.75987 V 379 H 68 48 v 32.35078 c 0,21.54744 0.378908,33.43771 1.134646,35.60562 l 1.134646,3.25485 L 69.134646,431.36549 88,412.51974 Z M 463.96456,412.25 464,379 h -20 -20 v 16.74038 16.74038 l 18.72365,18.74312 c 17.96884,17.98753 18.77367,18.65308 19.96456,16.50962 0.9161,-1.64887 1.25019,-10.93687 1.27635,-35.4835 z M 408,256 V 104 H 256 104 V 256 408 H 256 408 Z M 235.10476,383.36491 c -5.74927,-2.86498 -10.43248,-8.35409 -12.18027,-14.27627 -0.68082,-2.30691 -0.94576,-15.19648 -0.74179,-36.08864 0.30306,-31.04169 0.41389,-32.67948 2.46998,-36.5 2.76599,-5.13962 5.74931,-7.87807 11.34732,-10.41597 4.23805,-1.92135 6.42093,-2.04011 37.5,-2.04011 36.54544,0 37.54221,0.15214 44.12482,6.73475 6.69483,6.69483 6.84328,7.54357 7.17968,41.05033 0.19504,19.42643 -0.0908,32.18785 -0.79514,35.5 -1.54124,7.24757 -5.50755,12.54307 -11.89337,15.87907 L 306.77162,386 h -33.18947 -33.18946 z m 69.21098,-13.52825 c 4.56881,-2.43337 4.61904,-2.80616 4.65246,-34.5309 L 309,305.11153 306.58796,302.30576 304.17591,299.5 276.33796,299.19471 c -15.31088,-0.16791 -29.30224,-0.0347 -31.09191,0.29605 -1.78967,0.33074 -4.15217,1.56548 -5.25,2.74386 -1.90463,2.04437 -1.99605,3.54496 -1.99605,32.76281 0,32.06883 0.0441,32.41067 4.5,34.84784 2.86774,1.56853 58.86919,1.56073 61.81574,-0.009 z M 253.17431,351.68555 C 248.62856,346.84682 252.00952,339 258.64014,339 c 3.67522,0 7.35986,3.59439 7.35986,7.17959 0,6.82381 -8.25743,10.36865 -12.82569,5.50596 z m 30,0 C 278.47637,346.68482 281.65867,339 288.42742,339 c 3.87524,0 7.57258,3.6619 7.57258,7.5 0,6.53442 -8.37676,9.92122 -12.82569,5.18555 z M 268,329 c -2.97766,-2.97766 -2.66668,-8.33043 0.63486,-10.92742 3.49526,-2.74937 6.9109,-2.61773 9.91059,0.38197 2.9997,2.99969 3.13134,6.41533 0.38197,9.91059 C 276.33043,331.66668 270.97766,331.97766 268,329 Z m -102.07531,12.50722 c -18.40138,-5.89553 -21.59627,-32.24556 -5.11022,-42.14683 6.72948,-4.04162 12.16624,-4.85631 18.94962,-2.83958 12.67574,3.76856 19.48193,16.24133 15.79094,28.93788 -3.77147,12.97341 -16.94987,20.11116 -29.63034,16.04853 z m 12.62076,-16.96177 C 183.44699,319.64392 179.99394,311 173.13435,311 c -2.07382,0 -3.72953,0.91862 -5.54546,3.07673 -2.92743,3.47905 -2.984,3.75385 -1.54958,7.52668 2.18355,5.74315 8.2726,7.17559 12.50614,2.94204 z M 346,318.77847 c -3.62973,-1.94118 -5.23355,-5.81007 -3.94309,-9.51189 1.37301,-3.93859 4.59241,-5.26658 12.76764,-5.26658 13.08153,0 13.34598,-0.76037 12.97024,-37.29403 L 367.5,238.04244 364.72727,235.27122 361.95455,232.5 h -30.05931 -30.0593 l -2.91797,3.26578 C 296.05157,238.97384 296,239.2353 296,250.56123 c 0,10.90805 -0.13234,11.66202 -2.45455,13.98422 -4.82067,4.82068 -11.77518,2.07738 -13.13706,-5.18209 -0.37605,-2.0045 -0.44054,-8.05773 -0.14332,-13.45162 0.6491,-11.77972 3.5049,-19.10903 9.11209,-23.38584 6.82196,-5.20336 8.62939,-5.43541 42.62284,-5.47224 30.94009,-0.0335 31.58887,0.007 36.5,2.29919 6.2038,2.89508 12.03961,9.22369 13.49727,14.63703 0.73071,2.71364 1.00293,15.00915 0.80381,36.30667 -0.28977,30.99384 -0.38395,32.35836 -2.50723,36.32766 -2.51884,4.70875 -7.26185,9.03695 -12.14538,11.08317 -4.90054,2.05334 -19.03379,2.73682 -22.14847,1.07109 z M 327.91334,274.7182 C 321.94837,270.13844 324.31356,261 331.46386,261 c 5.45332,0 8.89063,4.27715 7.45636,9.27818 -1.46459,5.10673 -7.15093,7.40052 -11.00688,4.44002 z m -184.89536,-3.79515 c -5.46572,-2.47922 -7.5029,-4.24074 -10.89769,-9.42305 -2.60065,-3.97001 -2.62269,-4.16764 -2.94011,-26.36123 -0.31479,-22.00964 -0.28454,-22.39878 1.92431,-24.75 2.96172,-3.1526 7.7978,-3.18613 10.7212,-0.0743 2.06815,2.20145 2.17431,3.20392 2.17431,20.53212 0,20.41034 0.78288,23.99243 5.68766,26.02405 2.13852,0.88581 11.14008,1.13578 33.21081,0.92228 l 30.27714,-0.2929 2.41219,-2.80576 2.4122,-2.80577 v -51.89718 c 0,-35.90456 -0.34214,-52.6481 -1.11027,-54.33397 C 214.90311,141.29718 212.63879,141 181.40329,141 c -32.01778,0 -33.8409,0.27552 -36.2086,5.47206 -0.79075,1.7355 -1.19469,8.97133 -1.19469,21.40068 0,18.33611 -0.0545,18.82987 -2.31445,20.95295 -2.91298,2.73659 -6.65288,2.77445 -10.05069,0.10173 L 129,186.85484 l 0.006,-20.67742 c 0.003,-11.49052 0.47696,-22.37498 1.06654,-24.4982 1.35544,-4.88123 7.28408,-11.47089 12.42788,-13.81356 3.61958,-1.64848 7.28622,-1.82382 38.55366,-1.8437 l 34.55365,-0.022 5.21689,2.59969 c 5.97699,2.97845 10.47594,8.71108 12.16999,15.50717 0.74407,2.98502 1.00064,21.38111 0.80044,57.39314 -0.2897,52.11336 -0.33127,53.07934 -2.48513,57.7426 -2.58618,5.59929 -6.30128,9.33373 -11.8095,11.87097 -3.63733,1.67545 -7.08269,1.84251 -38,1.84251 -32.04769,0 -34.25736,-0.11674 -38.48202,-2.03303 z m 33.61688,-32.99563 C 174.62028,236.34275 174,234.96676 174,232.08241 c 0,-6.97675 7.32161,-9.94725 12.50814,-5.07476 2.85239,2.67968 3.10839,4.89943 1.02885,8.92083 -2.37472,4.5922 -6.61658,5.36995 -10.90213,1.99894 z m -0.35716,-20.88333 c -3.01477,-2.80868 -3.53114,-6.70961 -1.776,-13.41674 1.64096,-6.27076 4.10552,-10.48625 8.665,-14.82098 4.82813,-4.59012 3.1299,-10.31502 -2.85623,-9.62863 -2.28254,0.26173 -3.0542,1.0687 -4.10795,4.29599 -1.71668,5.25756 -3.90986,7.52627 -7.27572,7.52627 -4.11823,0 -5.84308,-0.93742 -7.45292,-4.05051 -1.65584,-3.20205 -1.12387,-7.58099 1.57316,-12.94949 4.8435,-9.64113 16.53505,-13.64361 26.55798,-9.09184 13.57584,6.16528 16.34721,22.21873 5.85983,33.94368 C 190.272,204.65747 189,207.04371 189,210.97971 c 0,6.54573 -8.07439,10.39457 -12.7223,6.06438 z M 282,193.88064 c -3.69751,-1.10942 -9.34319,-4.96921 -12.22141,-8.35541 -8.26497,-9.72369 -5.20523,-27.67466 5.81829,-34.13487 6.86662,-4.02411 12.26097,-4.86431 18.87877,-2.94046 12.95416,3.76588 19.82898,16.11061 16.10534,28.91948 -3.64214,12.52855 -16.7046,20.07474 -28.58099,16.51126 z m 11.54545,-17.33519 C 298.44699,171.64392 294.99394,163 288.13435,163 c -2.07382,0 -3.72953,0.91862 -5.54546,3.07673 -2.92743,3.47905 -2.984,3.75385 -1.54958,7.52668 2.18355,5.74315 8.2726,7.17559 12.50614,2.94204 z m 46.91735,16.8632 c -9.67178,-3.43407 -15.82458,-12.24478 -15.72777,-22.52192 0.10381,-11.02111 6.44704,-19.43025 16.96268,-22.48723 19.2488,-5.59578 35.58162,14.57274 26.90013,33.21753 -2.76252,5.93293 -7.54643,9.96132 -14.21168,11.96727 -5.73704,1.72659 -8.67007,1.68959 -13.92336,-0.17565 z m 12.90084,-17.04501 c 2.86788,-2.86789 3.27877,-5.28895 1.47302,-8.67938 -2.77766,-5.21526 -8.38655,-6.22528 -12.38211,-2.22971 -4.88063,4.88062 -1.44959,13.54545 5.36363,13.54545 1.80982,0 3.9053,-0.99621 5.54546,-2.63636 z M 464,333 v -31 h -20 -20 v 31 31 h 20 20 z M 88,256 V 225 H 68 48 v 31 31 h 20 20 z m 376,0 v -31 h -20 -20 v 31 31 h 20 20 z M 88,179 V 148 H 68 48 v 31 31 h 20 20 z m 376,0 v -31 h -20 -20 v 31 31 h 20 20 z M 88,116.24013 V 99.48026 L 69.048229,80.548179 C 50.118706,61.638323 50.095227,61.619334 49.048229,64.373149 48.394283,66.093156 48,79.518413 48,100.0651 V 133 H 68 88 Z M 133,68 V 48 H 100.64922 C 79.101778,48 67.211511,48.378908 65.043599,49.134646 L 61.788752,50.269292 80.634506,69.134646 99.48026,88 H 116.24013 133 Z m 77,0 V 48 h -31 -31 v 20 20 h 31 31 z m 77,0 V 48 h -31 -31 v 20 20 h 31 31 z m 77,0 V 48 h -31 -31 v 20 20 h 31 31 z m 67.3147,1.185496 c 18.69366,-18.713106 18.78093,-18.820894 16.19307,-20 C 445.66994,48.348123 435.22919,48 411.95295,48 H 379 v 20 20 h 16.75987 16.75987 z"
       id="path15082" />
  </g>
</svg>
