<?xml version="1.0" encoding="UTF-8" standalone="no"?>
<!-- Created with Inkscape (http://www.inkscape.org/) -->

<svg
   version="1.1"
   id="svg2112"
   width="1600"
   height="1635.3333"
   viewBox="0 0 1600 1635.3333"
   xmlns:xlink="http://www.w3.org/1999/xlink"
   xmlns="http://www.w3.org/2000/svg"
   xmlns:svg="http://www.w3.org/2000/svg">
  <defs
     id="defs2116" />
  <g
     id="g2118">

    <path
       fill="#000000"
       strokeWidth="   0.666667"
       d="M 3.4790963,1631.1666 C 35.022874,1595.0779 624.56051,909.03425 624.33809,908.67438 623.84463,907.87591 8.9931567,13.030966 4.2215214,6.1666665 L -0.06516267,0 H 238.1824 476.42997 L 682.715,300.30427 C 796.17173,465.47162 889.3,600.52778 889.66667,600.42907 890.03333,600.33037 1006.5316,465.19344 1148.5518,300.1248 L 1406.7702,0 h 70.3147 c 58.298,0 70.2236,0.15139066 69.7816,0.88584978 C 1546.5733,1.3730672 1412.7802,156.99806 1249.5485,346.71917 1086.3169,536.44029 952.69713,691.92239 952.61573,692.23499 c -0.0815,0.3126 142.62177,208.34046 317.11817,462.28411 174.4963,253.9437 320.2092,466.0129 323.8064,471.265 l 6.5404,9.5492 -238.207,-0.01 -238.207,-0.01 -218.00003,-317.3161 C 785.76667,1143.48 687.5012,1000.6816 687.29893,1000.674 c -0.20233,-0.01 -123.2023,142.7818 -273.33336,317.3098 L 141,1635.314 l -70.581413,0.01 -70.58141512,0.01 z m 1402.7706037,-98 C 1405.977,1532.7083 1284.8525,1359.3833 1137.0841,1148 989.3156,936.61665 765.2416,616.06665 639.14189,435.66666 513.04216,255.26666 409.51236,107.29076 409.07567,106.83132 408.44453,106.1673 386.10783,106.03056 300.17079,106.16465 L 192.0599,106.33333 477.75895,514.99999 C 634.89343,739.76665 859.46227,1060.9916 976.80087,1228.8333 L 1190.1437,1534 h 108.3008 c 86.4606,0 108.2009,-0.1681 107.8052,-0.8334 z"
       id="path20268" />
  </g>
</svg>
