<?xml version="1.0" encoding="UTF-8" standalone="no"?>
<!-- Created with Inkscape (http://www.inkscape.org/) -->

<svg
   version="1.1"
   id="svg259"
   width="1057.3333"
   height="682.66669"
   viewBox="0 0 1057.3333 682.66669"
   xmlns:xlink="http://www.w3.org/1999/xlink"
   xmlns="http://www.w3.org/2000/svg"
   xmlns:svg="http://www.w3.org/2000/svg">
  <defs
     id="defs263" />
  <g
     id="g265">

    <g
       id="g19296">
      <path
         fill="#feeca0"
         strokeWidth="1.33333"
         d="m 351.3933,664.09705 c -0.60226,-0.97445 2.64974,-1.43036 10.20284,-1.43036 13.76966,0 41.00726,-3.1246 58.88565,-6.75515 29.16726,-5.92297 53.65672,-14.20878 80.71789,-27.31027 l 17.86637,-8.64988 8.80029,4.54859 c 31.97288,16.52571 71.00739,29.031 109.46697,35.0694 19.38342,3.04332 78.01109,3.42746 96.66667,0.63338 39.69276,-5.94487 72.65443,-16.07286 106.66666,-32.77497 C 954.2225,571.66483 1024,462.35016 1024,340.21438 1024,266.78329 1000.2085,199.66649 953.73709,142 939.93728,124.87576 913.70373,99.421049 896.61348,86.572308 851.70308,52.807918 800.87921,31.126114 743.33331,21.181969 722.8501,17.642394 676.64913,16.296987 653.84458,18.57599 c -38.96131,3.893651 -81.71657,15.84153 -115.19361,32.19064 -10.46841,5.112433 -19.29452,9.034288 -19.61357,8.715235 -0.98838,-0.988372 10.86298,-7.384577 26.4477,-14.273893 116.99204,-51.7170093 252.14313,-35.9741501 353.76012,41.207184 18.59243,14.121534 48.44067,44.311674 62.86478,63.584854 70.19,93.78634 83.6733,213.85716 35.89598,319.65901 -25.90192,57.35924 -73.5119,110.79921 -128.67267,144.42904 -40.39603,24.6282 -88.53203,41.47699 -137.33333,48.07004 -20.14911,2.72215 -63.88232,3.06922 -83.33333,0.66134 -41.19674,-5.09983 -78.8472,-16.09786 -114.39536,-33.41589 -15.18171,-7.39608 -16.35271,-7.6651 -20.55432,-4.72218 -11.67521,8.17764 -60.20205,25.93071 -87.05032,31.84649 -26.17213,5.76682 -73.44917,10.5208 -75.27335,7.56919 z"
         id="path19310" />
      <path
         fill="#fee45c"
         strokeWidth="1.33333"
         d="m 655.99998,661.83769 c -50.14753,-6.00719 -93.30677,-18.71932 -129.98938,-38.2871 -12.07456,-6.44098 -3.96016,-3.69557 12.83276,4.34182 30.54777,14.62071 65.25313,25.23381 99.17523,30.32837 22.891,3.43787 77.55573,3.4138 99.98139,-0.044 36.72188,-5.66214 69.59314,-15.96216 102.66666,-32.16999 78.90472,-38.6676 139.06102,-106.54581 166.14746,-187.47487 13.6974,-40.92499 19.0224,-89.42324 14.4477,-131.58444 -7.7372,-71.30754 -39.86556,-137.60511 -91.90154,-189.6411 C 903.0534,90.99952 874.3348,70.486496 840.82896,54.070539 797.09961,32.645644 754.93831,21.667711 704.79827,18.650969 l -18.79829,-1.131027 20.66666,0.510145 c 43.7471,1.079872 88.66429,12.414825 131.33333,33.142251 36.09799,17.535396 61.18165,34.96129 88.49613,61.479252 64.00336,62.13694 97.5039,140.32326 97.5039,227.56279 0,82.13519 -31.15524,158.84886 -88.65459,218.29464 -52.81133,54.59905 -118.10553,88.17948 -196.24799,100.92916 -12.58246,2.05295 -71.73227,3.76095 -83.09744,2.39951 z"
         id="path19308" />
      <path
         fill="#fedc2c"
         strokeWidth="1.33333"
         d="M 646.66665,659.29928 C 607.23218,654.38977 567.6764,642.57314 533.87641,625.6051 l -12.74589,-6.39861 9.76806,-5.79182 c 72.98092,-43.27289 128.99779,-119.15799 148.18817,-200.74799 8.48593,-36.07889 8.08391,-25.82817 8.57097,-218.5387 l 0.44451,-175.872023 18.94887,0.86895 c 23.63494,1.083843 40.20753,3.553411 64.94888,9.678375 25.34451,6.274286 44.16511,13.183365 68.82898,25.267257 51.68315,25.321806 95.19725,62.862021 127.42286,109.929471 17.08674,24.9562 29.51256,50.1509 39.12658,79.33333 24.0225,72.91815 19.7612,153.97803 -11.78054,224.09097 -19.94421,44.33329 -53.63185,87.86594 -91.59789,118.3668 -27.65133,22.21432 -65.46072,43.5566 -98,55.31813 -17.41542,6.2949 -47.83941,13.96822 -67.33333,16.98232 -19.65526,3.03904 -71.79286,3.72348 -91.99999,1.20772 z"
         id="path19306" />
      <path
         fill="#5191fd"
         strokeWidth="1.33333"
         d="M 318.89143,662.52673 C 177.24751,649.92896 57.349792,550.72483 23.299942,417.95248 c -7.413161,-28.90652 -9.222514,-44.14979 -9.252846,-77.95247 -0.0303,-33.76663 1.734777,-48.63687 9.252846,-77.95247 10.626797,-41.43763 28.957352,-78.68193 57.089165,-115.99466 11.935609,-15.83083 44.615503,-47.831023 62.277553,-60.982249 48.10911,-35.822213 99.62465,-56.964829 160.66666,-65.939577 22.31114,-3.280312 72.35553,-3.280312 94.66667,0 23.24476,3.417577 42.6082,8.03774 64.91974,15.489999 18.57447,6.20404 54.41359,22.040408 54.41359,24.04394 0,0.507452 -5.16554,4.079202 -11.47895,7.937224 -29.89475,18.268143 -64.49937,48.826253 -86.13696,76.064453 -10.9475,13.78114 -24.77078,34.29406 -29.8754,44.33334 -1.77116,3.48333 -3.52028,6.33333 -3.88694,6.33333 -1.33752,0 5.9873,-13.00761 15.01646,-26.66667 25.19646,-38.11642 55.9145,-68.838847 94.36179,-94.375238 9.53333,-6.331967 17.58953,-11.694087 17.90266,-11.915825 C 515.3867,58.852629 486.69061,45.498184 465.17388,38.008699 392.0968,12.572231 309.30198,12.549445 236.34037,37.945721 124.87673,76.743669 42.281683,170.69899 21.369725,282.4838 c -16.939203,90.54845 6.711226,182.44606 65.797883,255.66841 11.20292,13.88306 32.849552,35.52337 46.680202,46.66657 26.95722,21.71911 66.32742,44.01287 98.6278,55.84894 15.39482,5.64125 43.01334,12.86154 60.58794,15.83949 15.09919,2.55849 46.98876,5.31683 52.35804,4.52879 2.64975,-0.38891 3.91173,-0.004 3.91173,1.19494 0,2.02615 -9.90446,2.12238 -30.44189,0.29579 z M 349.7992,322.66668 c 0,-6.23334 0.22968,-8.78334 0.5104,-5.66667 0.28071,3.11667 0.28071,8.21667 0,11.33333 -0.28072,3.11667 -0.5104,0.56667 -0.5104,-5.66666 z m 1.2306,-17.33334 c 0,-3.3 0.26003,-4.65 0.57783,-3 0.31781,1.65 0.31781,4.35 0,6 -0.3178,1.65 -0.57783,0.3 -0.57783,-3 z m 1.27952,-10.66666 c 0,-2.56667 0.2744,-3.61667 0.60978,-2.33334 0.33536,1.28334 0.33536,3.38334 0,4.66667 -0.33538,1.28333 -0.60978,0.23333 -0.60978,-2.33333 z m 1.28394,-8.66667 c 0.0272,-2.2 0.326,-2.93859 0.66405,-1.64129 0.33805,1.29729 0.31583,3.09729 -0.0495,4 -0.36524,0.9027 -0.64182,-0.15871 -0.61465,-2.35871 z m 1.28392,-7.33333 c 0,-1.83334 0.30264,-2.58334 0.67252,-1.66667 0.36988,0.91667 0.36988,2.41667 0,3.33333 -0.36988,0.91667 -0.67252,0.16667 -0.67252,-1.66666 z m 1.24317,-5.05931 c -0.18003,-2.58156 4.28767,-19.73191 4.74988,-18.23364 0.21939,0.71112 -0.73251,5.49295 -2.11532,10.62628 -1.38281,5.13333 -2.56837,8.55664 -2.63456,7.60736 z m 5.28417,-21.02391 c -0.19074,-3.79486 15.58283,-45.37387 16.76481,-44.19189 0.29131,0.29132 -0.78774,3.4724 -2.3979,7.06905 -1.61016,3.59667 -5.48539,13.73939 -8.61163,22.53939 -3.12624,8.8 -5.71612,15.36255 -5.75528,14.58345 z"
         id="path19304" />
      <path
         fill="#317cfd"
         strokeWidth="1.33333"
         d="M 318.89143,659.88674 C 291.86504,657.42506 257.11551,649.69672 232.47561,640.66772 200.17523,628.83165 160.80503,606.53789 133.84781,584.81878 76.601143,538.69581 34.752787,469.03896 21.392765,397.63665 -0.7869019,279.09797 46.271079,160.88949 145.33333,86.301035 234.85386,18.896971 357.19724,0.42449223 465.17388,38.008699 c 21.51673,7.489485 50.21282,20.84393 48.0621,22.366908 -0.31313,0.221738 -8.36933,5.583858 -17.90266,11.915825 -75.75235,50.314118 -125.11439,124.708738 -142.24145,214.375248 -2.9,15.18253 -2.93616,17.09698 -3.67701,194.66667 l -0.7482,179.33334 -8.66667,0.17665 c -4.76667,0.0972 -14.26552,-0.3333 -21.10856,-0.9566 z"
         id="path19302" />
      <path
         fill="#aa6c8f"
         strokeWidth="1.33333"
         d="m 349.6964,489.33335 c 0.55111,-191.60177 0.33739,-186.07142 8.52759,-220.66667 17.18689,-72.59707 60.34429,-138.1747 120.66542,-183.35101 19.12428,-14.322745 39.34185,-27.098833 40.33633,-25.489733 0.36619,0.592516 -1.8598,2.47903 -4.94664,4.192256 -20.07542,11.142027 -48.52365,32.9668 -67.48487,51.772727 -42.40292,42.05561 -72.56359,95.2587 -85.90892,151.54242 -8.46505,35.70119 -8.0286,24.54716 -8.52975,217.9844 -0.30336,117.08923 -0.91382,177.10587 -1.81057,178 -0.91497,0.9123 -1.18967,-55.40613 -0.84859,-173.98439 z"
         id="path19300" />
      <path
         fill="#fd6345"
         strokeWidth="1.33333"
         d="m 352.35583,485.66668 c 0.50045,-193.8258 0.0629,-182.62579 8.52948,-218.33334 C 379.07871,190.60303 427.39943,121.84836 495.33332,76.029693 549.5099,39.489775 612.70294,18.625235 670.66665,18.13963 l 16.66666,-0.139629 V 192.66667 c 0,191.96226 0.30908,183.71085 -8.24073,220.00001 -18.20275,77.26042 -67.78827,147.44374 -136.62638,193.38094 -14.48043,9.66311 -43.97911,24.72147 -64.27503,32.81083 -34.4059,13.7132 -83.5493,23.80824 -115.90027,23.80824 h -10.3921 z"
         id="path19298" />
    </g>
    <path
       fill="#337eff"
       stroke="none"
       strokeWidth="1.33333"
       d="M 350.66666,664.00002 V 420.00001 c 0,-81.46 -1.168,-158.53467 39.81599,-232 30.88534,-55.36321 76.18534,-93.592673 128.184,-128.000008 -22.94533,-19.935467 -62.99066,-28.970001 -92,-35.534001 C 309.41999,-2.0638001 181.05733,35.674401 98.785997,124 -16.427866,247.69201 -12.799626,444.49468 106.66666,564.00002 c 21.87787,21.88533 47.216,41.8 74.66667,56.292 52.28266,27.604 110.01199,43.708 169.33333,43.708 z"
       id="path19267" />
  </g>
</svg>
