<?xml version="1.0" encoding="UTF-8" standalone="no"?>
<!-- Created with Inkscape (http://www.inkscape.org/) -->

<svg
   version="1.1"
   id="svg55"
   width="64"
   height="64"
   viewBox="0 0 64 64"
   xmlns:xlink="http://www.w3.org/1999/xlink"
   xmlns="http://www.w3.org/2000/svg"
   xmlns:svg="http://www.w3.org/2000/svg">
  <defs
     id="defs59" />
  <g
     id="g61">
    <path
       fill="#FFD300"
       strokeWidth="0.125"
       fillOpacity="1"
       d="M 31.294304,56.038494 C 31.146796,56.009641 30.937077,55.887658 30.828264,55.767419 30.683336,55.607275 19.103581,26.087269 17.104309,20.78125 L 16.857037,20.125 h -2.909866 c -3.003517,0 -3.596473,-0.07828 -3.82481,-0.50493 C 10.055063,19.494321 10,18.510301 10,17.433359 c 0,-2.12425 0.119489,-2.635179 0.706185,-3.019596 0.276277,-0.181024 0.293888,-0.268138 0.295036,-1.459389 0.001,-1.064011 0.04802,-1.367374 0.293485,-1.894493 0.37145,-0.797668 0.967507,-1.3937255 1.765175,-1.7651754 C 13.62693,9.0306479 13.86242,9.0024423 15.5,9.0024423 c 1.63758,0 1.87307,0.028206 2.440119,0.2922633 0.797667,0.3714499 1.393726,0.9675074 1.765175,1.7651754 0.238461,0.512081 0.292488,0.836831 0.293485,1.764083 l 0.0013,1.136464 0.476236,0.142683 c 0.261929,0.07848 0.604291,0.278994 0.760804,0.445594 0.341146,0.363134 -0.04662,-0.611105 7.70399,19.35566 l 6.246441,16.091866 2.762765,0.0019 c 2.657735,0.0018 2.778654,0.01259 3.180741,0.28356 0.784529,0.528694 0.931494,0.957574 0.931494,2.718325 0,1.337689 -0.03597,1.623567 -0.25,1.986934 -0.321626,0.546035 -0.770044,0.875832 -1.384674,1.018382 -0.474051,0.109945 -8.590333,0.139429 -9.133522,0.03318 z M 17.875,12.9875 c 0,-0.979004 -0.01366,-1.026161 -0.412936,-1.425436 -0.335254,-0.335254 -0.549684,-0.430022 -1.139835,-0.503757 -0.399795,-0.04995 -1.067905,-0.05518 -1.484689,-0.01161 -1.301519,0.136036 -1.693589,0.572822 -1.802104,2.007636 L 12.963915,14 H 15.419458 17.875 Z m 25.566599,42.91875 c 0.169411,-0.397005 0.428697,-1.213008 0.496487,-1.5625 L 44.004762,54 h 2.497619 C 47.876071,54 49,53.98386 49,53.964132 c 0,-0.01973 -2.864814,-7.40254 -6.366253,-16.40625 L 36.267495,21.1875 31.107505,21.125 25.947514,21.0625 25.545676,20.03125 25.143837,19 H 27.071919 29 v -1.762359 c 0,-1.914685 0.133535,-2.448665 0.706185,-2.823879 0.276276,-0.181023 0.293888,-0.268137 0.295036,-1.459388 10e-4,-1.064011 0.04802,-1.367374 0.293485,-1.894493 0.371449,-0.797668 0.967508,-1.3937255 1.765175,-1.7651754 C 32.62693,9.0306479 32.86242,9.0024422 34.5,9.0024422 c 1.63758,0 1.87307,0.028206 2.440119,0.2922634 0.797667,0.3714499 1.393726,0.9675074 1.765175,1.7651754 0.238461,0.512081 0.292488,0.836831 0.293485,1.764083 l 0.0012,1.136463 0.476236,0.142684 c 0.261929,0.07848 0.604291,0.278994 0.760804,0.445594 0.342122,0.364172 -0.02793,-0.565514 7.704428,19.355776 l 6.246003,16.091981 2.762765,0.0018 c 2.657834,0.0017 2.778639,0.01246 3.180741,0.283443 0.784529,0.528694 0.931494,0.957574 0.931494,2.718325 0,1.337689 -0.03597,1.623568 -0.25,1.986934 -0.321626,0.546035 -0.770044,0.875833 -1.384674,1.018383 -0.26968,0.06255 -3.997906,0.115061 -8.28495,0.116701 -7.376321,0.0028 -7.789614,-0.0088 -7.701277,-0.215768 z M 36.875,12.9875 c 0,-0.979004 -0.01366,-1.026161 -0.412936,-1.425436 -0.335254,-0.335254 -0.549684,-0.430022 -1.139835,-0.503757 -0.399795,-0.04995 -1.067905,-0.05518 -1.484689,-0.01161 -1.301519,0.136036 -1.693589,0.572822 -1.802104,2.007636 L 31.963915,14 H 34.419457 36.875 Z M 3.25,55.75 C 3.0893821,55.589382 2.9996773,55.332409 2.9990971,55.03125 2.9983346,54.638463 9.334798,21.627895 9.4298174,21.529609 c 0.017489,-0.01809 0.2232467,0.0453 0.4572401,0.140861 0.2339935,0.09556 0.6926305,0.212249 1.0191925,0.2593 0.326563,0.04705 0.591774,0.124289 0.589359,0.171639 -0.0024,0.04735 -0.08481,0.451716 -0.183109,0.898591 -0.0983,0.446875 -0.180694,0.854687 -0.183109,0.90625 C 11.126976,23.957812 12.302096,24 13.740768,24 h 2.615768 l 0.37414,0.96875 0.37414,0.96875 L 13.905851,26 10.706886,26.0625 10.482294,27.25 c -0.123525,0.653125 -0.255521,1.314062 -0.293324,1.46875 L 10.120237,29 h 4.098494 4.098495 l 0.343539,0.90625 c 0.188946,0.498438 0.342571,0.948437 0.341388,1 C 19.001028,30.957812 16.922738,31 14.383863,31 H 9.7677245 l -0.1457749,0.71875 c -0.080176,0.395313 -0.2178002,1.069739 -0.3058312,1.498724 l -0.1600564,0.779973 5.564508,0.03253 5.564509,0.03253 1.048524,2.727346 1.048522,2.727346 -1.532157,7.9484 c -1.119293,5.806564 -1.594265,8.027355 -1.762637,8.241404 -0.343553,0.436759 -1.222025,0.416524 -1.578258,-0.03635 C 17.174832,55.245726 17.179425,55.137457 17.625,52.9375 17.83125,51.919173 18,51.066646 18,51.042997 18,51.019349 15.275665,51 11.945923,51 6.2878762,51 5.8876559,51.01431 5.8277794,51.21875 5.7925421,51.339062 5.6176227,52.225 5.4390695,53.1875 5.044734,55.313186 4.9225697,55.715745 4.623207,55.87596 4.229107,56.086875 3.5220165,56.022016 3.25,55.75 Z m 15.188176,-7.03125 c 0.03737,-0.154688 0.170713,-0.830218 0.296324,-1.501177 l 0.228385,-1.219929 -6.071891,0.03243 L 6.8191022,46.0625 6.6009639,47.25 c -0.119976,0.653125 -0.2490957,1.314062 -0.2869325,1.46875 L 6.245237,49 h 6.0625 6.0625 z m 1.169393,-6.0625 c 0.147193,-0.739063 0.267582,-1.414063 0.267528,-1.5 C 19.875021,41.033408 18.5837,41 13.835424,41 H 7.7958482 l -0.2228057,1.21875 c -0.1225431,0.670313 -0.251457,1.345312 -0.2864751,1.5 L 7.222898,44 h 6.058522 6.058521 z m 0.938275,-4.881019 c 0.117901,-0.673622 0.246753,-1.348622 0.28634,-1.5 L 20.904157,36 H 14.844608 8.7850581 l -0.2676265,1.34375 c -0.1471946,0.739063 -0.2675827,1.414062 -0.2675291,1.5 C 8.2499791,38.966594 9.5415333,39 14.29074,39 h 6.04074 z"
       id="path10159" />
  </g>
</svg>
