<?xml version="1.0" encoding="UTF-8" standalone="no"?>
<!-- Created with Inkscape (http://www.inkscape.org/) -->

<svg
   version="1.1"
   id="svg268"
   width="512"
   height="512"
   viewBox="0 0 512 512"
   xmlns:xlink="http://www.w3.org/1999/xlink"
   xmlns="http://www.w3.org/2000/svg"
   xmlns:svg="http://www.w3.org/2000/svg">
  <defs
     id="defs272" />
  <g
     id="g274">
    <path
       fill="#FFd300"
       d="m 157.6413,510.10211 c -1.57229,-1.03659 -3.70682,-3.17112 -4.74341,-4.74341 -1.80142,-2.73237 -1.885,-5.98532 -1.8913,-73.6087 L 151,361 80.25,360.99341 C 12.626617,360.98711 9.3736669,360.90353 6.6412967,359.10211 1.9715129,356.02338 0.01317841,352.15225 0.01317841,346 c 0,-6.15225 1.95833449,-10.02338 6.62811829,-13.10211 2.7323702,-1.80142 5.9853203,-1.885 73.6087033,-1.8913 L 151,331 V 256 181 L 80.25,180.993 C 12.626617,180.98711 9.3736669,180.90353 6.6412967,179.10211 1.9715129,176.02338 0.01317841,172.15225 0.01317841,166 c 0,-6.15225 1.95833449,-10.02338 6.62811829,-13.10211 2.7323702,-1.80142 5.9853203,-1.885 73.6087033,-1.8913 L 151,151 151.007,80.25 c 0.006,-67.623383 0.0899,-70.8763331 1.8913,-73.6087033 3.07873,-4.6697838 6.94986,-6.62811829 13.10211,-6.62811829 6.15225,0 10.02338,1.95833449 13.10211,6.62811829 1.80142,2.7323702 1.885,5.9853203 1.8913,73.6087033 L 181,151 h 75 75 l 0.007,-70.75 c 0.006,-67.623383 0.0899,-70.8763331 1.8913,-73.6087033 3.07873,-4.6697838 6.94986,-6.62811829 13.10211,-6.62811829 6.15225,0 10.02338,1.95833449 13.10211,6.62811829 1.80142,2.7323702 1.885,5.9853203 1.8913,73.6087033 L 361,151 l 70.75,0.007 c 67.62338,0.006 70.87633,0.0899 73.6087,1.8913 4.66979,3.07873 6.62812,6.94986 6.62812,13.10211 0,6.15225 -1.95833,10.02338 -6.62812,13.10211 -2.73237,1.80142 -5.98532,1.885 -73.6087,1.8913 L 361,181 v 75 75 l 70.75,0.007 c 67.62338,0.006 70.87633,0.0899 73.6087,1.8913 4.66979,3.07873 6.62812,6.94986 6.62812,13.10211 0,6.15225 -1.95833,10.02338 -6.62812,13.10211 -2.73237,1.80142 -5.98532,1.885 -73.6087,1.8913 L 361,361 l -0.007,70.75 c -0.006,67.62338 -0.0899,70.87633 -1.8913,73.6087 -3.07873,4.66979 -6.94986,6.62812 -13.10211,6.62812 -6.15225,0 -10.02338,-1.95833 -13.10211,-6.62812 -1.80142,-2.73237 -1.885,-5.98532 -1.8913,-73.6087 L 331,361 h -75 -75 l -0.007,70.75 c -0.006,67.62338 -0.0899,70.87633 -1.8913,73.6087 -3.07873,4.66979 -6.94986,6.62812 -13.10211,6.62812 -3.70999,0 -6.43038,-0.61339 -8.3587,-1.88471 z M 331,256 v -75 h -75 -75 v 75 75 h 75 75 z m -113.3587,43.10211 c -4.67254,-3.08054 -6.62734,-6.94896 -6.63471,-13.1296 -0.008,-6.7898 0.61554,-7.7701 12.86488,-20.22251 l 9.59101,-9.75 -9.59101,-9.75 c -12.24934,-12.45241 -12.87297,-13.43271 -12.86488,-20.22251 0.0114,-9.58407 5.43683,-15.00948 15.0209,-15.0209 6.7898,-0.008 7.7701,0.61554 20.22251,12.86488 l 9.75,9.59101 9.75,-9.59101 c 12.45241,-12.24934 13.43271,-12.87297 20.22251,-12.86488 9.58407,0.0114 15.00948,5.43683 15.0209,15.0209 0.008,6.7898 -0.61554,7.7701 -12.86488,20.22251 l -9.59101,9.75 9.59101,9.75 c 12.24934,12.45241 12.87297,13.43271 12.86488,20.22251 -0.0114,9.58407 -5.43683,15.00948 -15.0209,15.0209 -6.7898,0.008 -7.7701,-0.61554 -20.22251,-12.86488 l -9.75,-9.59101 -9.75,9.59101 c -5.3625,5.27505 -10.86263,10.32911 -12.22251,11.23124 -3.49767,2.32032 -12.69531,2.1757 -16.38619,-0.25766 z m -180.000003,180 c -4.672536,-3.08054 -6.62734,-6.94896 -6.634708,-13.1296 -0.0081,-6.7898 0.615539,-7.7701 12.864884,-20.22251 L 53.462477,436 43.871473,426.25 C 31.622128,413.79759 30.998495,412.81729 31.006589,406.02749 c 0.01142,-9.58407 5.436833,-15.00948 15.020905,-15.0209 6.789797,-0.008 7.770096,0.61554 20.222506,12.86488 l 9.75,9.59101 9.75,-9.59101 c 12.45241,-12.24934 13.432709,-12.87297 20.22251,-12.86488 9.58407,0.0114 15.00948,5.43683 15.0209,15.0209 0.008,6.7898 -0.61554,7.7701 -12.86488,20.22251 l -9.591007,9.75 9.591007,9.75 c 12.24934,12.45241 12.87297,13.43271 12.86488,20.22251 -0.0114,9.58407 -5.43683,15.00948 -15.0209,15.0209 -6.789801,0.008 -7.7701,-0.61554 -20.22251,-12.86488 l -9.75,-9.59101 -9.75,9.59101 c -5.3625,5.27505 -10.862628,10.32911 -12.222506,11.23124 -3.497677,2.32032 -12.695315,2.1757 -16.386197,-0.25766 z M 240.48886,478.71329 C 228.55713,474.1707 220.411,466.68449 214.68522,455 211.62147,448.74789 211.5,448.02329 211.5,436 c 0,-12.1991 0.0823,-12.6685 3.42025,-19.5 4.47524,-9.1592 12.42055,-17.10451 21.57975,-21.57975 6.8315,-3.33792 7.3009,-3.42025 19.5,-3.42025 12.1991,0 12.6685,0.0823 19.5,3.42025 4.29154,2.09687 9.15893,5.57917 12.57975,9 3.42083,3.42082 6.90313,8.28821 9,12.57975 3.33792,6.8315 3.42025,7.3009 3.42025,19.5 0,12.1991 -0.0823,12.6685 -3.42025,19.5 -4.49423,9.19806 -12.4283,17.11915 -21.57975,21.54444 -6.46277,3.12515 -7.84422,3.40691 -18,3.67116 -9.48225,0.24674 -11.8294,-0.0295 -17.01114,-2.00231 z m 22.86984,-30.61118 c 4.36506,-2.87782 6.62812,-7.00989 6.62812,-12.10211 0,-2.73038 -0.74116,-5.62418 -1.88471,-7.3587 -2.87782,-4.36506 -7.00989,-6.62812 -12.10211,-6.62812 -8.047,0 -13.98682,5.93982 -13.98682,13.98682 0,8.047 5.93982,13.98682 13.98682,13.98682 2.73038,0 5.62418,-0.74116 7.3587,-1.88471 z m 157.13016,30.61118 C 408.55713,474.1707 400.411,466.68449 394.68522,455 391.62147,448.74789 391.5,448.02329 391.5,436 c 0,-12.1991 0.0823,-12.6685 3.42025,-19.5 4.47524,-9.1592 12.42055,-17.10451 21.57975,-21.57975 6.8315,-3.33792 7.3009,-3.42025 19.5,-3.42025 12.1991,0 12.6685,0.0823 19.5,3.42025 4.29154,2.09687 9.15893,5.57917 12.57975,9 3.42083,3.42082 6.90313,8.28821 9,12.57975 3.33792,6.8315 3.42025,7.3009 3.42025,19.5 0,12.1991 -0.0823,12.6685 -3.42025,19.5 -4.49423,9.19806 -12.4283,17.11915 -21.57975,21.54444 -6.46277,3.12515 -7.84422,3.40691 -18,3.67116 -9.48225,0.24674 -11.8294,-0.0295 -17.01114,-2.00231 z m 22.86984,-30.61118 c 4.36506,-2.87782 6.62812,-7.00989 6.62812,-12.10211 0,-5.09222 -2.26306,-9.22429 -6.62812,-12.10211 -6.05132,-3.98956 -15.16834,-1.76736 -19.46081,4.74341 -3.98956,6.05132 -1.76736,15.16834 4.74341,19.46081 1.73452,1.14355 4.62832,1.88471 7.3587,1.88471 2.73038,0 5.62418,-0.74116 7.3587,-1.88471 z M 60.488857,118.71329 C 48.557129,114.1707 40.411003,106.68449 34.685216,95 31.621473,88.747887 31.5,88.023294 31.5,76 c 0,-12.199103 0.08233,-12.668502 3.420245,-19.5 2.096875,-4.291541 5.579179,-9.158934 9,-12.579755 3.420821,-3.420821 8.288214,-6.903125 12.579755,-9 C 63.331498,31.582331 63.800897,31.5 76,31.5 c 12.199103,0 12.668502,0.08233 19.5,3.420245 4.291541,2.096875 9.15893,5.579179 12.57975,9 3.42083,3.420821 6.90313,8.288214 9,12.579755 3.33792,6.831498 3.42025,7.300897 3.42025,19.5 0,12.199103 -0.0823,12.668502 -3.42025,19.5 -4.49423,9.19806 -12.4283,17.11915 -21.57975,21.54444 -6.462768,3.12515 -7.844221,3.40691 -18,3.67116 -9.482246,0.24674 -11.829403,-0.0295 -17.011143,-2.00231 z M 83.358703,88.102114 C 87.72376,85.224287 89.986822,81.092219 89.986822,76 89.986822,67.952997 84.047003,62.013178 76,62.013178 c -8.047003,0 -13.986822,5.939819 -13.986822,13.986822 0,8.047003 5.939819,13.986822 13.986822,13.986822 2.730382,0 5.624181,-0.741159 7.358703,-1.884708 z M 240.48886,118.71329 C 228.55713,114.1707 220.411,106.68449 214.68522,95 211.62147,88.747887 211.5,88.023294 211.5,76 c 0,-12.199103 0.0823,-12.668502 3.42025,-19.5 C 219.39549,47.340803 227.3408,39.395489 236.5,34.920245 243.3315,31.582331 243.8009,31.5 256,31.5 c 12.1991,0 12.6685,0.08233 19.5,3.420245 9.1592,4.475244 17.10451,12.420558 21.57975,21.579755 3.33792,6.831498 3.42025,7.300897 3.42025,19.5 0,12.199103 -0.0823,12.668502 -3.42025,19.5 -4.49423,9.19806 -12.4283,17.11915 -21.57975,21.54444 -6.46277,3.12515 -7.84422,3.40691 -18,3.67116 -9.48225,0.24674 -11.8294,-0.0295 -17.01114,-2.00231 z M 263.3587,88.102114 C 267.72376,85.224287 269.98682,81.092219 269.98682,76 269.98682,67.952997 264.047,62.013178 256,62.013178 c -8.047,0 -13.98682,5.939819 -13.98682,13.986822 0,8.047003 5.93982,13.986822 13.98682,13.986822 2.73038,0 5.62418,-0.741159 7.3587,-1.884708 z m 134.2826,30.999996 c -4.67254,-3.08054 -6.62734,-6.94896 -6.63471,-13.1296 -0.008,-6.789801 0.61554,-7.7701 12.86488,-20.22251 L 413.46248,76 403.87147,66.25 C 391.62213,53.79759 390.9985,52.817291 391.00659,46.027494 c 0.0114,-9.584072 5.43683,-15.00948 15.0209,-15.020905 6.7898,-0.0081 7.7701,0.615539 20.22251,12.864884 l 9.75,9.591004 9.75,-9.591004 c 12.45241,-12.249345 13.43271,-12.872978 20.22251,-12.864884 9.58407,0.01142 15.00948,5.436833 15.0209,15.020905 0.008,6.789797 -0.61554,7.770096 -12.86488,20.222506 l -9.59101,9.75 9.59101,9.75 c 12.24934,12.45241 12.87297,13.432709 12.86488,20.22251 -0.0114,9.58407 -5.43683,15.00948 -15.0209,15.0209 -6.7898,0.008 -7.7701,-0.61554 -20.22251,-12.86488 l -9.75,-9.591007 -9.75,9.591007 c -5.3625,5.27505 -10.86263,10.32911 -12.22251,11.23124 -3.49767,2.32032 -12.69531,2.1757 -16.38619,-0.25766 z"
       id="path4525" />
  </g>
</svg>
